<svg width="174" height="124" viewBox="0 0 174 124" fill="none" xmlns="http://www.w3.org/2000/svg">
<path d="M25.0513 68.791C22.3867 68.791 20.2264 66.639 20.2264 63.985C20.2264 61.33 22.3867 59.178 25.0513 59.178C27.7157 59.178 29.8761 61.33 29.8761 63.985C29.8761 66.639 27.7157 68.791 25.0513 68.791ZM31.2514 60.231L32.7231 59.14C32.0043 58.014 31.0456 57.059 29.9142 56.343L28.819 57.808C28.1926 57.428 27.5039 57.14 26.7711 56.963L27.0371 55.153C26.3976 55.01 25.7341 54.929 25.0513 54.929C24.3684 54.929 23.7054 55.01 23.0657 55.153L23.3315 56.963C22.5985 57.14 21.9106 57.428 21.2836 57.808L20.1881 56.343C19.0575 57.059 18.0986 58.014 17.3802 59.14L18.8514 60.231C18.4693 60.856 18.1805 61.541 18.0022 62.271L16.1851 62.006C16.0425 62.644 15.9609 63.304 15.9609 63.985C15.9609 64.665 16.0425 65.325 16.1851 65.963L18.0022 65.698C18.1805 66.428 18.4693 67.113 18.8514 67.738L17.3802 68.829C18.0986 69.955 19.0575 70.911 20.1881 71.626L21.2836 70.161C21.9106 70.541 22.5984 70.829 23.3315 71.006L23.0656 72.8171C23.7054 72.9591 24.3684 73.04 25.0513 73.04C25.7341 73.04 26.3976 72.9591 27.0371 72.8171L26.7711 71.006C27.5039 70.829 28.1926 70.541 28.819 70.161L29.9142 71.626C31.0456 70.911 32.0043 69.955 32.7231 68.829L31.2514 67.738C31.6338 67.113 31.922 66.428 32.1007 65.698L33.9177 65.963C34.0602 65.325 34.1415 64.665 34.1415 63.985C34.1415 63.304 34.0602 62.644 33.9177 62.006L32.1007 62.271C31.922 61.541 31.6338 60.856 31.2514 60.231Z" fill="#2DC6D6"/>
<path d="M165.762 119.37C165.326 122.279 162.605 124.284 159.686 123.85C156.765 123.415 154.753 120.705 155.188 117.796C155.625 114.888 158.345 112.882 161.266 113.317C164.185 113.751 166.199 116.462 165.762 119.37Z" fill="#FBB03B"/>
<path d="M159.592 121.286C159.535 121.251 159.482 121.204 159.44 121.149L157.66 118.828C157.469 118.58 157.517 118.225 157.766 118.036C158.015 117.845 158.372 117.894 158.562 118.141L159.949 119.948L162.832 117.08C163.053 116.86 163.41 116.86 163.635 117.081C163.856 117.302 163.856 117.66 163.634 117.881L160.292 121.205C160.176 121.32 160.017 121.381 159.853 121.369C159.76 121.363 159.67 121.334 159.592 121.286Z" fill="white"/>
<path d="M69.7257 41.9918C69.4858 43.5898 67.991 44.6918 66.3868 44.4528C64.7816 44.2138 63.6764 42.7248 63.9153 41.1268C64.1552 39.5288 65.65 38.4268 67.2542 38.6658C68.8594 38.9038 69.9656 40.3928 69.7257 41.9918Z" fill="#FBB03B"/>
<path d="M66.3328 43.043C66.3017 43.023 66.2726 42.997 66.2495 42.967L65.2717 41.692C65.1663 41.556 65.1925 41.361 65.33 41.257C65.4665 41.152 65.6623 41.179 65.7677 41.315L66.5286 42.308L68.1127 40.732C68.2342 40.611 68.4309 40.611 68.5544 40.732C68.6759 40.853 68.6759 41.05 68.5534 41.172L66.7173 42.998C66.6541 43.061 66.5657 43.095 66.4764 43.088C66.4252 43.085 66.376 43.069 66.3328 43.043Z" fill="white"/>
<path d="M5.84248 19.9812C5.60275 21.5802 4.10778 22.6812 2.50349 22.4432C0.899094 22.2042 -0.207076 20.7152 0.0326497 19.1172C0.272375 17.5182 1.76735 16.4162 3.37164 16.6552C4.97603 16.8942 6.0822 18.3832 5.84248 19.9812Z" fill="#FBB03B"/>
<path d="M2.45425 21.0334C2.42233 21.0134 2.39352 20.9874 2.37023 20.9574L1.39235 19.6824C1.28764 19.5464 1.31365 19.3514 1.45078 19.2464C1.5873 19.1424 1.78356 19.1694 1.88816 19.3044L2.64961 20.2974L4.23402 18.7224C4.35529 18.6004 4.55175 18.6014 4.67533 18.7224C4.7967 18.8434 4.7967 19.0404 4.67463 19.1624L2.83853 20.9884C2.77489 21.0514 2.68715 21.0844 2.5975 21.0784C2.54601 21.0754 2.49692 21.0594 2.45425 21.0334Z" fill="white"/>
<path d="M173.694 66.828C173.694 69.495 171.524 71.656 168.847 71.656C166.17 71.656 164 69.495 164 66.828C164 64.161 166.17 62 168.847 62C171.524 62 173.694 64.161 173.694 66.828Z" fill="url(#paint0_linear_203_576)"/>
<path d="M171.059 64.919C169.829 64.438 168.849 66.13 168.849 66.13C168.849 66.13 167.87 64.438 166.639 64.919C164.821 65.63 167.332 68.908 168.849 69.656C170.366 68.908 172.877 65.63 171.059 64.919Z" fill="white"/>
<path d="M156.659 19.5996C156.659 20.9106 155.591 21.9736 154.275 21.9736C152.958 21.9736 151.891 20.9106 151.891 19.5996C151.891 18.2876 152.958 17.2246 154.275 17.2246C155.591 17.2246 156.659 18.2876 156.659 19.5996Z" fill="#4D9C78"/>
<path d="M155.361 18.6612C154.756 18.4252 154.274 19.2572 154.274 19.2572C154.274 19.2572 153.792 18.4252 153.187 18.6612C152.294 19.0112 153.528 20.6232 154.274 20.9912C155.02 20.6232 156.255 19.0112 155.361 18.6612Z" fill="white"/>
<path d="M19.7677 90.8896C19.7677 92.2016 18.7004 93.2646 17.3838 93.2646C16.0673 93.2646 15 92.2016 15 90.8896C15 89.5786 16.0673 88.5156 17.3838 88.5156C18.7004 88.5156 19.7677 89.5786 19.7677 90.8896Z" fill="#4D9C78"/>
<path d="M18.4707 89.9522C17.8654 89.7162 17.3836 90.5482 17.3836 90.5482C17.3836 90.5482 16.9019 89.7162 16.2965 89.9522C15.4028 90.3022 16.6375 91.9142 17.3836 92.2822C18.1297 91.9142 19.3645 90.3022 18.4707 89.9522Z" fill="white"/>
<path d="M58.1932 2.37402C58.1932 3.68602 57.1261 4.74902 55.809 4.74902C54.4929 4.74902 53.4258 3.68602 53.4258 2.37402C53.4258 1.06302 54.4929 1.90735e-05 55.809 1.90735e-05C57.1261 1.90735e-05 58.1932 1.06302 58.1932 2.37402Z" fill="#4D9C78"/>
<path d="M56.8965 1.43564C56.2912 1.19864 55.8093 2.03064 55.8093 2.03064C55.8093 2.03064 55.3275 1.19864 54.7221 1.43564C53.8287 1.78464 55.0634 3.39765 55.8093 3.76465C56.5552 3.39765 57.79 1.78464 56.8965 1.43564Z" fill="white"/>
<defs>
<linearGradient id="paint0_linear_203_576" x1="168.847" y1="71.656" x2="168.847" y2="62" gradientUnits="userSpaceOnUse">
<stop stop-color="#135396"/>
<stop offset="1" stop-color="#2B5178"/>
</linearGradient>
</defs>
</svg>
